{
  "accessors": [
    {
      "bufferView": 2,
      "componentType": 5126,
      "count": 36,
      "max": [
        0.40167370438575745,
        0.8805334568023682,
        0.3428058326244354
      ],
      "min": [
        -0.4020484387874603,
        -0.8805334568023682,
        -0.3442628085613251
      ],
      "type": "VEC3"
    },
    {
      "bufferView": 2,
      "byteOffset": 432,
      "componentType": 5126,
      "count": 36,
      "max": [
        0.8278046250343323,
        0.38419556617736816,
        0.9340544939041138
      ],
      "min": [
        -0.8262816667556763,
        -0.3795413076877594,
        -0.9361879229545593
      ],
      "type": "VEC3"
    },
    {
      "bufferView": 3,
      "componentType": 5126,
      "count": 36,
      "max": [
        0.501960813999176,
        0.501960813999176,
        0.501960813999176,
        1.0
      ],
      "min": [
        0.501960813999176,
        0.501960813999176,
        0.501960813999176,
        1.0
      ],
      "type": "VEC4"
    },
    {
      "bufferView": 1,
      "componentType": 5126,
      "count": 36,
      "max": [
        0.7499999403953552,
        1.0
      ],
      "min": [
        0.25,
        0.5
      ],
      "type": "VEC2"
    },
    {
      "bufferView": 0,
      "componentType": 5125,
      "count": 36,
      "type": "SCALAR"
    },
    {
      "bufferView": 2,
      "byteOffset": 864,
      "componentType": 5126,
      "count": 1076,
      "max": [
        0.5000001192092896,
        0.008049607276916504,
        0.5000001192092896
      ],
      "min": [
        -0.4999999403953552,
        -0.4999997913837433,
        -0.5
      ],
      "type": "VEC3"
    },
    {
      "bufferView": 2,
      "byteOffset": 13776,
      "componentType": 5126,
      "count": 1076,
      "max": [
        0.9999990463256836,
        1.0,
        0.9999990463256836
      ],
      "min": [
        -0.9999990463256836,
        -0.9999977946281433,
        -0.9999989867210388
      ],
      "type": "VEC3"
    },
    {
      "bufferView": 1,
      "byteOffset": 288,
      "componentType": 5126,
      "count": 1076,
      "max": [
        1.0,
        1.0
      ],
      "min": [
        0.0,
        -1.8912301506876782e-16
      ],
      "type": "VEC2"
    },
    {
      "bufferView": 0,
      "byteOffset": 144,
      "componentType": 5125,
      "count": 3450,
      "type": "SCALAR"
    },
    {
      "bufferView": 2,
      "byteOffset": 26688,
      "componentType": 5126,
      "count": 84,
      "max": [
        1.0,
        1.0,
        1.0000001192092896
      ],
      "min": [
        -1.000000238418579,
        -1.0,
        -1.0000004768371582
      ],
      "type": "VEC3"
    },
    {
      "bufferView": 2,
      "byteOffset": 27696,
      "componentType": 5126,
      "count": 84,
      "max": [
        1.0,
        1.0,
        1.0
      ],
      "min": [
        -1.0,
        -1.0,
        -1.0
      ],
      "type": "VEC3"
    },
    {
      "bufferView": 1,
      "byteOffset": 8896,
      "componentType": 5126,
      "count": 84,
      "max": [
        0.65625,
        1.0
      ],
      "min": [
        0.3437499701976776,
        -7.450580596923828e-08
      ],
      "type": "VEC2"
    },
    {
      "bufferView": 0,
      "byteOffset": 13944,
      "componentType": 5125,
      "count": 240,
      "type": "SCALAR"
    },
    {
      "bufferView": 2,
      "byteOffset": 28704,
      "componentType": 5126,
      "count": 1076,
      "max": [
        1.3537126779556274,
        1.3444938659667969,
        2.6773126125335693
      ],
      "min": [
        -1.3537122011184692,
        -0.0846368595957756,
        -0.051891908049583435
      ],
      "type": "VEC3"
    },
    {
      "bufferView": 2,
      "byteOffset": 41616,
      "componentType": 5126,
      "count": 1076,
      "max": [
        0.9999990463256836,
        0.9997526407241821,
        0.999782383441925
      ],
      "min": [
        -0.9999990463256836,
        -0.9998037815093994,
        -0.9997180104255676
      ],
      "type": "VEC3"
    },
    {
      "bufferView": 1,
      "byteOffset": 9568,
      "componentType": 5126,
      "count": 1076,
      "max": [
        1.0,
        1.0
      ],
      "min": [
        0.0,
        -1.8912301506876782e-16
      ],
      "type": "VEC2"
    },
    {
      "bufferView": 0,
      "byteOffset": 14904,
      "componentType": 5125,
      "count": 3444,
      "type": "SCALAR"
    },
    {
      "bufferView": 2,
      "byteOffset": 54528,
      "componentType": 5126,
      "count": 4,
      "max": [
        0.9293981790542603,
        1.3444938659667969,
        2.2631731033325195
      ],
      "min": [
        -0.9293980002403259,
        1.3004426956176758,
        0.40489891171455383
      ],
      "type": "VEC3"
    },
    {
      "bufferView": 2,
      "byteOffset": 54576,
      "componentType": 5126,
      "count": 4,
      "max": [
        0.0015056718839332461,
        0.9997526407241821,
        0.025203915312886238
      ],
      "min": [
        -0.001505654421634972,
        0.9996811747550964,
        0.02219349890947342
      ],
      "type": "VEC3"
    },
    {
      "bufferView": 1,
      "byteOffset": 18176,
      "componentType": 5126,
      "count": 4,
      "max": [
        0.5858194231987,
        0.9608193635940552
      ],
      "min": [
        0.4141806364059448,
        0.7891806364059448
      ],
      "type": "VEC2"
    },
    {
      "bufferView": 0,
      "byteOffset": 28680,
      "componentType": 5125,
      "count": 6,
      "type": "SCALAR"
    },
    {
      "bufferView": 4,
      "componentType": 5126,
      "count": 98,
      "max": [
        6.666666507720947
      ],
      "min": [
        3.433333396911621
      ],
      "type": "SCALAR"
    },
    {
      "bufferView": 5,
      "componentType": 5126,
      "count": 98,
      "max": [
        -0.07978978753089905,
        3.154670238494873,
        -0.19961199164390564
      ],
      "min": [
        -0.07978978753089905,
        0.42812439799308777,
        -0.19961199164390564
      ],
      "type": "VEC3"
    },
    {
      "bufferView": 4,
      "byteOffset": 392,
      "componentType": 5126,
      "count": 98,
      "max": [
        6.666666507720947
      ],
      "min": [
        3.433333396911621
      ],
      "type": "SCALAR"
    },
    {
      "bufferView": 6,
      "componentType": 5126,
      "count": 98,
      "max": [
        8.264636123980667e-17,
        0.9999989867210388,
        8.264636123980667e-17,
        1.0
      ],
      "min": [
        -8.659168188943959e-17,
        -0.8566579222679138,
        -8.659168188943959e-17,
        -0.46375298500061035
      ],
      "type": "VEC4"
    },
    {
      "bufferView": 4,
      "byteOffset": 784,
      "componentType": 5126,
      "count": 193,
      "max": [
        9.833333015441895
      ],
      "min": [
        0.03333333507180214
      ],
      "type": "SCALAR"
    },
    {
      "bufferView": 6,
      "byteOffset": 1568,
      "componentType": 5126,
      "count": 193,
      "max": [
        0.0,
        0.0,
        0.0,
        1.0
      ],
      "min": [
        -0.7372446060180664,
        0.0,
        0.0,
        0.6756259202957153
      ],
      "type": "VEC4"
    }
  ],
  "animations": [
    {
      "channels": [
        {
          "sampler": 0,
          "target": {
            "node": 6,
            "path": "translation"
          }
        },
        {
          "sampler": 1,
          "target": {
            "node": 6,
            "path": "rotation"
          }
        },
        {
          "sampler": 2,
          "target": {
            "node": 12,
            "path": "rotation"
          }
        }
      ],
      "name": "Take 001",
      "samplers": [
        {
          "input": 21,
          "interpolation": "LINEAR",
          "output": 22
        },
        {
          "input": 23,
          "interpolation": "LINEAR",
          "output": 24
        },
        {
          "input": 25,
          "interpolation": "LINEAR",
          "output": 26
        }
      ]
    }
  ],
  "asset": {
    "extras": {
      "author": "albedooo (https://sketchfab.com/albedooo)",
      "license": "CC-BY-4.0 (http://creativecommons.org/licenses/by/4.0/)",
      "source": "https://sketchfab.com/3d-models/sims-music-box-f5ae1c9a12934951b037904bd49e485d",
      "title": "Sims Music Box"
    },
    "generator": "Sketchfab-12.68.0",
    "version": "2.0"
  },
  "bufferViews": [
    {
      "buffer": 0,
      "byteLength": 28704,
      "name": "floatBufferViews",
      "target": 34963
    },
    {
      "buffer": 0,
      "byteLength": 18208,
      "byteOffset": 28704,
      "byteStride": 8,
      "name": "floatBufferViews",
      "target": 34962
    },
    {
      "buffer": 0,
      "byteLength": 54624,
      "byteOffset": 46912,
      "byteStride": 12,
      "name": "floatBufferViews",
      "target": 34962
    },
    {
      "buffer": 0,
      "byteLength": 576,
      "byteOffset": 101536,
      "byteStride": 16,
      "name": "floatBufferViews",
      "target": 34962
    },
    {
      "buffer": 0,
      "byteLength": 1556,
      "byteOffset": 102112,
      "name": "floatBufferViews"
    },
    {
      "buffer": 0,
      "byteLength": 1176,
      "byteOffset": 103668,
      "byteStride": 12,
      "name": "floatBufferViews"
    },
    {
      "buffer": 0,
      "byteLength": 4656,
      "byteOffset": 104844,
      "byteStride": 16,
      "name": "floatBufferViews"
    }
  ],
  "buffers": [
    {
      "byteLength": 109500,
      "uri": "scene.bin"
    }
  ],
  "materials": [
    {
      "doubleSided": true,
      "name": "light_green",
      "pbrMetallicRoughness": {
        "baseColorFactor": [
          0.2342000000000001,
          1.0,
          0.0,
          1.0
        ],
        "metallicFactor": 0.0,
        "roughnessFactor": 0.0
      }
    },
    {
      "doubleSided": true,
      "name": "lambert1",
      "pbrMetallicRoughness": {
        "metallicFactor": 0.0,
        "roughnessFactor": 0.6
      }
    },
    {
      "doubleSided": true,
      "name": "blinn3",
      "pbrMetallicRoughness": {
        "baseColorFactor": [
          0.54,
          0.54,
          0.0211,
          1.0
        ],
        "metallicFactor": 0.0,
        "roughnessFactor": 0.9207483816249483
      }
    },
    {
      "doubleSided": true,
      "name": "white",
      "pbrMetallicRoughness": {
        "metallicFactor": 0.0,
        "roughnessFactor": 0.6
      }
    }
  ],
  "meshes": [
    {
      "name": "dimond_light_green_0",
      "primitives": [
        {
          "attributes": {
            "COLOR_0": 2,
            "NORMAL": 1,
            "POSITION": 0,
            "TEXCOORD_0": 3
          },
          "indices": 4,
          "material": 0,
          "mode": 4
        }
      ]
    },
    {
      "name": "pCube3_lambert1_0",
      "primitives": [
        {
          "attributes": {
            "NORMAL": 6,
            "POSITION": 5,
            "TEXCOORD_0": 7
          },
          "indices": 8,
          "material": 1,
          "mode": 4
        }
      ]
    },
    {
      "name": "pCylinder1_blinn3_0",
      "primitives": [
        {
          "attributes": {
            "NORMAL": 10,
            "POSITION": 9,
            "TEXCOORD_0": 11
          },
          "indices": 12,
          "material": 2,
          "mode": 4
        }
      ]
    },
    {
      "name": "pCube4_white_0",
      "primitives": [
        {
          "attributes": {
            "NORMAL": 14,
            "POSITION": 13,
            "TEXCOORD_0": 15
          },
          "indices": 16,
          "material": 3,
          "mode": 4
        }
      ]
    },
    {
      "name": "pCube4_blinn3_0",
      "primitives": [
        {
          "attributes": {
            "NORMAL": 18,
            "POSITION": 17,
            "TEXCOORD_0": 19
          },
          "indices": 20,
          "material": 2,
          "mode": 4
        }
      ]
    }
  ],
  "nodes": [
    {
      "children": [
        1
      ],
      "matrix": [
        0.21624138951301575,
        0.0,
        0.0,
        0.0,
        0.0,
        4.801523390285739e-17,
        -0.21624138951301575,
        0.0,
        0.0,
        0.21624138951301575,
        4.801523390285739e-17,
        0.0,
        0.0,
        0.0,
        0.0,
        1.0
      ],
      "name": "Sketchfab_model"
    },
    {
      "children": [
        2
      ],
      "matrix": [
        1.0,
        0.0,
        0.0,
        0.0,
        0.0,
        0.0,
        1.0,
        0.0,
        0.0,
        -1.0,
        0.0,
        0.0,
        0.0,
        0.0,
        0.0,
        1.0
      ],
      "name": "e0efd576a4b5444a98025baa30da6e0a.fbx"
    },
    {
      "children": [
        3
      ],
      "name": "Object_2"
    },
    {
      "children": [
        4,
        5,
        6,
        8,
        10,
        12
      ],
      "name": "RootNode"
    },
    {
      "name": "greasePencilPerspRenderPlane",
      "rotation": [
        0.5979024767875671,
        -0.01818285509943962,
        0.013568304479122162,
        0.8012477159500122
      ],
      "scale": [
        0.15035539865493774,
        1.0,
        0.15035539865493774
      ],
      "translation": [
        -1.006334662437439,
        2.752018928527832,
        8.291152000427246
      ]
    },
    {
      "name": "greasePencilPerspArtDrawPlane",
      "rotation": [
        0.5979024767875671,
        -0.01818285509943962,
        0.013568304479122162,
        0.8012477159500122
      ],
      "scale": [
        2733.734619140625,
        18181.818359375,
        2733.734619140625
      ],
      "translation": [
        85.96147155761719,
        -566.5308837890625,
        -1906.888671875
      ]
    },
    {
      "children": [
        7
      ],
      "name": "dimond",
      "rotation": [
        0.0,
        -2.4492937051703357e-16,
        0.0,
        1.0
      ],
      "translation": [
        -0.07978978753089905,
        0.42812439799308777,
        -0.19961199164390564
      ]
    },
    {
      "mesh": 0,
      "name": "dimond_light_green_0"
    },
    {
      "children": [
        9
      ],
      "name": "pCube3",
      "scale": [
        2.7074246406555176,
        2.7074246406555176,
        2.7074246406555176
      ]
    },
    {
      "mesh": 1,
      "name": "pCube3_lambert1_0"
    },
    {
      "children": [
        11
      ],
      "name": "pCylinder1",
      "scale": [
        0.25696128606796265,
        0.03979778289794922,
        0.274339497089386
      ],
      "translation": [
        -0.0981517806649208,
        -0.41912224888801575,
        -0.1976078301668167
      ]
    },
    {
      "mesh": 2,
      "name": "pCylinder1_blinn3_0"
    },
    {
      "children": [
        13,
        14
      ],
      "name": "pCube4",
      "rotation": [
        -0.629231870174408,
        -0.0,
        0.0,
        0.7772176265716553
      ],
      "translation": [
        0.0,
        0.029903549700975418,
        -1.3023205995559692
      ]
    },
    {
      "mesh": 3,
      "name": "pCube4_white_0"
    },
    {
      "mesh": 4,
      "name": "pCube4_blinn3_0"
    }
  ],
  "scene": 0,
  "scenes": [
    {
      "name": "Sketchfab_Scene",
      "nodes": [
        0
      ]
    }
  ]
}
